<svg width="45" height="45" viewBox="0 0 45 45" fill="none" xmlns="http://www.w3.org/2000/svg">
<path d="M24.8625 5.62501C15.3187 5.36251 7.5 13.0313 7.5 22.5H4.14375C3.3 22.5 2.8875 23.5125 3.4875 24.0938L8.71875 29.3438C9.09375 29.7188 9.675 29.7188 10.05 29.3438L15.2812 24.0938C15.4108 23.9616 15.4984 23.794 15.5328 23.6122C15.5673 23.4303 15.5472 23.2423 15.475 23.0719C15.4028 22.9014 15.2818 22.7562 15.1272 22.6544C14.9726 22.5527 14.7913 22.4989 14.6062 22.5H11.25C11.25 15.1875 17.2125 9.28126 24.5625 9.37501C31.5375 9.46876 37.4062 15.3375 37.5 22.3125C37.5938 29.6438 31.6875 35.625 24.375 35.625C21.3562 35.625 18.5625 34.5938 16.35 32.85C15.9909 32.5671 15.5403 32.4261 15.0839 32.4537C14.6276 32.4814 14.1973 32.6758 13.875 33C13.0875 33.7875 13.1437 35.1188 14.025 35.7938C16.971 38.1231 20.6194 39.3855 24.375 39.375C33.8437 39.375 41.5125 31.5563 41.25 22.0125C41.0062 13.2188 33.6562 5.86876 24.8625 5.62501ZM23.9062 15C23.1375 15 22.5 15.6375 22.5 16.4063V23.3063C22.5 23.9625 22.8562 24.5813 23.4187 24.9188L29.2687 28.3875C29.9437 28.7813 30.8062 28.5563 31.2 27.9C31.5937 27.225 31.3687 26.3625 30.7125 25.9688L25.3125 22.7625V16.3875C25.3125 15.6375 24.675 15 23.9062 15Z" fill="currentColor"/>
</svg>
